<svg data-v-423bf9ae="" xmlns="http://www.w3.org/2000/svg" viewBox="0 0 448 90" class="iconLeft"><!----><!----><!----><g data-v-423bf9ae="" id="59cb3bfa-06a3-4315-9779-8a1867390537" fill="black" transform="matrix(4.103966932682209,0,0,4.103966932682209,106.7989067226666,-15.73871043279194)"><path d="M4.45 19.18L4.45 19.18Q2.73 19.18 1.76 18.14L1.76 18.14L1.76 18.14Q0.78 17.11 0.78 15.25L0.78 15.25L0.78 15.25Q0.78 13.41 1.58 11.91L1.58 11.91L1.58 11.91Q2.38 10.40 3.74 9.53L3.74 9.53L3.74 9.53Q5.10 8.67 6.69 8.67L6.69 8.67L6.69 8.67Q7.62 8.67 8.14 8.95L8.14 8.95L8.14 8.95Q8.67 9.23 8.67 9.74L8.67 9.74L8.67 9.74Q8.67 10.18 8.31 10.48L8.31 10.48L8.31 10.48Q7.95 10.78 7.42 10.78L7.42 10.78L7.42 10.78Q6.83 10.78 6.36 10.54L6.36 10.54L6.36 10.54Q5.89 10.30 5.59 9.69L5.59 9.69L5.59 9.69Q4.62 10.11 3.87 10.93L3.87 10.93L3.87 10.93Q3.12 11.76 2.69 12.91L2.69 12.91L2.69 12.91Q2.27 14.06 2.27 15.37L2.27 15.37L2.27 15.37Q2.27 16.76 2.82 17.54L2.82 17.54L2.82 17.54Q3.37 18.33 4.35 18.33L4.35 18.33L4.35 18.33Q5.47 18.33 6.17 17.54L6.17 17.54L6.17 17.54Q6.87 16.76 6.96 15.55L6.96 15.55L6.96 15.55Q7.94 15.55 7.94 16.44L7.94 16.44L7.94 16.44Q7.94 17.16 7.46 17.79L7.46 17.79L7.46 17.79Q6.99 18.42 6.18 18.80L6.18 18.80L6.18 18.80Q5.38 19.18 4.45 19.18L4.45 19.18ZM13.34 19.18L13.34 19.18Q12.36 19.18 11.63 18.73L11.63 18.73L11.63 18.73Q10.89 18.27 10.49 17.44L10.49 17.44L10.49 17.44Q10.09 16.60 10.09 15.50L10.09 15.50L10.09 15.50Q10.09 14.01 10.70 12.87L10.70 12.87L10.70 12.87Q11.31 11.72 12.40 11.07L12.40 11.07L12.40 11.07Q13.50 10.43 14.90 10.43L14.90 10.43L14.90 10.43Q15.53 10.43 15.99 10.54L15.99 10.54L15.99 10.54Q16.16 10.75 16.18 11.07L16.18 11.07L16.18 11.07Q14.71 11.07 13.67 11.65L13.67 11.65L13.67 11.65Q12.63 12.22 12.10 13.25L12.10 13.25L12.10 13.25Q11.56 14.28 11.56 15.61L11.56 15.61L11.56 15.61Q11.56 16.88 12.05 17.63L12.05 17.63L12.05 17.63Q12.53 18.37 13.41 18.37L13.41 18.37L13.41 18.37Q14.31 18.37 15.04 17.86L15.04 17.86L15.04 17.86Q15.76 17.35 16.23 16.42L16.23 16.42L16.23 16.42Q16.69 15.48 16.81 14.27L16.81 14.27L16.81 14.27Q16.23 13.87 15.97 13.45L15.97 13.45L15.97 13.45Q15.71 13.02 15.71 12.45L15.71 12.45L15.71 12.45Q15.71 11.98 15.97 11.68L15.97 11.68L15.97 11.68Q16.24 11.38 16.66 11.38L16.66 11.38L16.66 11.38Q17.26 11.38 17.59 11.94L17.59 11.94L17.59 11.94Q17.92 12.50 17.92 13.51L17.92 13.51L17.92 13.51Q17.92 15.06 17.31 16.37L17.31 16.37L17.31 16.37Q16.70 17.67 15.65 18.42L15.65 18.42L15.65 18.42Q14.60 19.18 13.34 19.18L13.34 19.18ZM27.08 18.17L27.08 18.17Q27.08 18.34 27.15 18.56L27.15 18.56L27.15 18.56Q27.22 18.77 27.33 18.86L27.33 18.86L27.33 18.86Q26.95 19.18 26.45 19.18L26.45 19.18L26.45 19.18Q26.12 19.18 25.94 18.96L25.94 18.96L25.94 18.96Q25.75 18.73 25.75 18.30L25.75 18.30L25.75 18.30Q25.75 18.09 25.84 17.21L25.84 17.21L25.68 17.14L25.68 17.14Q25.16 18.12 24.38 18.65L24.38 18.65L24.38 18.65Q23.60 19.18 22.72 19.18L22.72 19.18L22.72 19.18Q21.97 19.18 21.39 18.77L21.39 18.77L21.39 18.77Q20.82 18.37 20.50 17.62L20.50 17.62L20.50 17.62Q20.19 16.87 20.19 15.89L20.19 15.89L20.19 15.89Q20.19 14.50 20.90 13.33L20.90 13.33L20.90 13.33Q21.62 12.15 22.84 11.47L22.84 11.47L22.84 11.47Q24.07 10.78 25.51 10.78L25.51 10.78L25.51 10.78Q26.19 10.78 26.81 10.88L26.81 10.88L27.13 9.07L26.56 8.47L26.56 8.47Q26.82 8.25 27.21 8.11L27.21 8.11L27.21 8.11Q27.59 7.98 27.92 7.98L27.92 7.98L27.92 7.98Q28.25 7.98 28.39 8.14L28.39 8.14L28.39 8.14Q28.53 8.30 28.53 8.69L28.53 8.69L28.53 8.69Q28.53 8.95 28.41 9.51L28.41 9.51L28.41 9.51Q28.29 10.08 28.14 10.75L28.14 10.75L28.14 10.75Q27.65 12.95 27.36 14.66L27.36 14.66L27.36 14.66Q27.08 16.37 27.08 18.17L27.08 18.17ZM26.10 15.40L26.10 15.40Q26.42 13.17 26.73 11.42L26.73 11.42L26.73 11.42Q25.16 11.48 24.01 12.07L24.01 12.07L24.01 12.07Q22.86 12.66 22.25 13.66L22.25 13.66L22.25 13.66Q21.64 14.67 21.64 15.97L21.64 15.97L21.64 15.97Q21.64 17.00 22.06 17.56L22.06 17.56L22.06 17.56Q22.48 18.13 23.25 18.13L23.25 18.13L23.25 18.13Q24.08 18.13 24.87 17.38L24.87 17.38L24.87 17.38Q25.66 16.63 26.10 15.37L26.10 15.37L26.10 15.40ZM33.15 9.13L33.15 9.13Q32.76 9.13 32.53 8.94L32.53 8.94L32.53 8.94Q32.30 8.75 32.30 8.43L32.30 8.43L32.30 8.43Q32.30 8.06 32.59 7.78L32.59 7.78L32.59 7.78Q32.89 7.49 33.39 7.49L33.39 7.49L33.39 7.49Q33.80 7.49 34.02 7.69L34.02 7.69L34.02 7.69Q34.24 7.88 34.24 8.19L34.24 8.19L34.24 8.19Q34.24 8.58 33.94 8.86L33.94 8.86L33.94 8.86Q33.64 9.13 33.15 9.13L33.15 9.13ZM31.81 19.18L31.81 19.18Q31.43 19.18 31.23 18.99L31.23 18.99L31.23 18.99Q31.04 18.80 31.04 18.37L31.04 18.37L31.04 18.37Q31.04 17.78 31.31 16.26L31.31 16.26L31.31 16.26Q31.58 14.74 32.31 11.48L32.31 11.48L31.74 10.91L31.74 10.91Q32.00 10.68 32.37 10.56L32.37 10.56L32.37 10.56Q32.73 10.43 33.03 10.43L33.03 10.43L33.03 10.43Q33.40 10.43 33.57 10.58L33.57 10.58L33.57 10.58Q33.73 10.74 33.73 11.13L33.73 11.13L33.73 11.13Q33.73 11.20 33.49 12.15L33.49 12.15L33.49 12.15Q33.03 14.01 32.71 15.60L32.71 15.60L32.71 15.60Q32.40 17.19 32.40 18.27L32.40 18.27L32.40 18.27Q32.40 18.70 32.59 18.87L32.59 18.87L32.59 18.87Q32.24 19.18 31.81 19.18L31.81 19.18ZM37.30 19.18L37.30 19.18Q36.51 19.18 36.51 18.37L36.51 18.37L36.51 18.37Q36.51 17.74 36.90 15.73L36.90 15.73L36.90 15.73Q37.30 13.72 37.81 11.70L37.81 11.70L37.21 11.10L37.21 11.10Q37.49 10.82 37.90 10.65L37.90 10.65L37.90 10.65Q38.30 10.49 38.58 10.49L38.58 10.49L38.58 10.49Q38.96 10.49 39.10 10.63L39.10 10.63L39.10 10.63Q39.23 10.77 39.23 11.17L39.23 11.17L39.23 11.17Q39.23 11.55 39.10 12.03L39.10 12.03L39.10 12.03Q38.98 12.50 38.77 12.92L38.77 12.92L38.91 12.99L38.91 12.99Q40.33 10.43 42.55 10.43L42.55 10.43L42.55 10.43Q43.47 10.43 43.92 10.90L43.92 10.90L43.92 10.90Q44.37 11.37 44.37 12.33L44.37 12.33L44.37 12.33Q44.37 12.91 44.24 13.53L44.24 13.53L44.24 13.53Q44.11 14.15 43.88 15.09L43.88 15.09L43.88 15.09Q43.60 16.25 43.47 16.92L43.47 16.92L43.47 16.92Q43.34 17.58 43.34 18.27L43.34 18.27L43.34 18.27Q43.34 18.68 43.50 18.86L43.50 18.86L43.50 18.86Q43.18 19.18 42.77 19.18L42.77 19.18L42.77 19.18Q42.38 19.18 42.19 18.98L42.19 18.98L42.19 18.98Q42.00 18.79 42.00 18.37L42.00 18.37L42.00 18.37Q42.00 17.84 42.11 17.19L42.11 17.19L42.11 17.19Q42.22 16.53 42.46 15.34L42.46 15.34L42.46 15.34Q42.67 14.35 42.78 13.72L42.78 13.72L42.78 13.72Q42.90 13.09 42.90 12.64L42.90 12.64L42.90 12.64Q42.90 11.37 41.94 11.37L41.94 11.37L41.94 11.37Q40.84 11.37 39.90 12.40L39.90 12.40L39.90 12.40Q38.96 13.43 38.42 15.03L38.42 15.03L38.42 15.03Q37.87 16.63 37.87 18.27L37.87 18.27L37.87 18.27Q37.87 18.70 38.01 18.86L38.01 18.86L38.01 18.86Q37.69 19.18 37.30 19.18L37.30 19.18ZM53.45 10.74L53.45 10.74Q53.93 10.74 53.93 11.14L53.93 11.14L53.93 11.14Q53.93 14.25 53.31 16.71L53.31 16.71L53.31 16.71Q52.68 19.17 51.29 20.64L51.29 20.64L51.29 20.64Q49.90 22.11 47.68 22.11L47.68 22.11L47.68 22.11Q46.76 22.11 46.16 21.79L46.16 21.79L46.16 21.79Q45.56 21.48 45.56 20.99L45.56 20.99L45.56 20.99Q45.56 20.75 45.72 20.48L45.72 20.48L45.72 20.48Q45.88 20.22 46.16 20.01L46.16 20.01L46.16 20.01Q46.47 20.58 46.92 20.85L46.92 20.85L46.92 20.85Q47.38 21.13 48.06 21.13L48.06 21.13L48.06 21.13Q48.75 21.13 49.53 20.71L49.53 20.71L49.53 20.71Q50.32 20.29 51.05 19.31L51.05 19.31L51.05 19.31Q51.79 18.34 52.25 16.79L52.25 16.79L51.95 16.79L51.95 16.79Q51.45 17.72 50.60 18.26L50.60 18.26L50.60 18.26Q49.76 18.79 48.86 18.79L48.86 18.79L48.86 18.79Q48.09 18.79 47.50 18.38L47.50 18.38L47.50 18.38Q46.91 17.98 46.59 17.24L46.59 17.24L46.59 17.24Q46.26 16.51 46.26 15.54L46.26 15.54L46.26 15.54Q46.26 14.11 46.88 12.95L46.88 12.95L46.88 12.95Q47.50 11.79 48.68 11.11L48.68 11.11L48.68 11.11Q49.85 10.43 51.44 10.43L51.44 10.43L51.44 10.43Q52.22 10.43 52.81 10.54L52.81 10.54L52.81 10.54Q52.93 10.74 52.98 10.95L52.98 10.95L52.98 10.95Q53.17 10.81 53.26 10.77L53.26 10.77L53.26 10.77Q53.35 10.74 53.45 10.74L53.45 10.74ZM52.78 11.07L52.81 12.89L52.82 12.17L52.82 12.17Q52.82 11.83 52.79 11.07L52.79 11.07L52.78 11.07ZM49.39 17.78L49.39 17.78Q50.11 17.78 50.88 17.17L50.88 17.17L50.88 17.17Q51.66 16.56 52.22 15.06L52.22 15.06L52.22 15.06Q52.78 13.57 52.78 11.07L52.78 11.07L52.78 11.07Q51.21 11.10 50.06 11.67L50.06 11.67L50.06 11.67Q48.92 12.24 48.31 13.22L48.31 13.22L48.31 13.22Q47.71 14.21 47.71 15.48L47.71 15.48L47.71 15.48Q47.71 16.58 48.15 17.18L48.15 17.18L48.15 17.18Q48.59 17.78 49.39 17.78L49.39 17.78ZM66.21 10.37L66.21 10.37Q64.76 10.37 63.63 10.09L63.63 10.09L63.04 13.72L63.04 13.72Q63.67 13.79 64.67 13.79L64.67 13.79L65.63 13.55L65.63 13.82L65.63 13.82Q65.63 14.29 65.32 14.55L65.32 14.55L65.32 14.55Q65.02 14.80 64.43 14.80L64.43 14.80L64.43 14.80Q63.71 14.80 62.92 14.60L62.92 14.60L62.92 14.60Q62.52 17.08 62.52 17.79L62.52 17.79L62.52 17.79Q62.52 17.88 62.55 17.99L62.55 17.99L65.48 17.99L65.48 17.99Q66.23 17.92 66.86 17.68L66.86 17.68L66.86 17.68Q66.98 18.06 66.98 18.21L66.98 18.21L66.98 18.21Q66.98 18.73 66.47 18.96L66.47 18.96L66.47 18.96Q65.97 19.18 64.85 19.18L64.85 19.18L64.85 19.18Q63.84 19.18 62.92 18.90L62.92 18.90L62.92 18.90Q62.37 19.19 61.92 19.19L61.92 19.19L61.92 19.19Q61.50 19.19 61.31 18.97L61.31 18.97L61.31 18.97Q61.11 18.75 61.11 18.24L61.11 18.24L61.11 18.24Q61.11 17.40 61.35 15.67L61.35 15.67L61.35 15.67Q61.59 13.93 62.24 9.84L62.24 9.84L61.88 9.14L61.88 9.14Q62.68 8.67 63.24 8.67L63.24 8.67L63.24 8.67Q63.74 8.67 63.74 9.27L63.74 9.27L63.74 9.28L63.74 9.28Q64.67 9.25 65.37 9.16L65.37 9.16L65.37 9.16Q66.08 9.06 67.19 8.83L67.19 8.83L67.65 8.75L67.65 8.75Q67.72 8.97 67.72 9.27L67.72 9.27L67.72 9.27Q67.72 9.86 67.28 10.12L67.28 10.12L67.28 10.12Q66.84 10.37 66.21 10.37L66.21 10.37ZM69.78 19.18L69.78 19.18Q69.38 19.18 69.19 18.94L69.19 18.94L69.19 18.94Q68.99 18.69 68.99 18.16L68.99 18.16L68.99 18.16Q68.99 17.57 69.41 15.51L69.41 15.51L69.41 15.51Q69.82 13.45 70.29 11.70L70.29 11.70L69.71 11.10L69.71 11.10Q70.43 10.49 70.94 10.49L70.94 10.49L70.94 10.49Q71.27 10.49 71.43 10.68L71.43 10.68L71.43 10.68Q71.58 10.88 71.58 11.17L71.58 11.17L71.58 11.17Q71.58 11.62 71.43 12.15L71.43 12.15L71.43 12.15Q71.27 12.68 70.98 13.40L70.98 13.40L71.12 13.47L71.12 13.47Q71.79 11.93 72.52 11.17L72.52 11.17L72.52 11.17Q73.25 10.42 73.91 10.42L73.91 10.42L73.91 10.42Q74.33 10.42 74.52 10.58L74.52 10.58L74.52 10.58Q74.72 10.74 74.72 11.10L74.72 11.10L74.72 11.10Q74.72 11.49 74.38 11.73L74.38 11.73L74.38 11.73Q74.05 11.96 73.53 11.96L73.53 11.96L73.53 11.96Q72.77 11.96 72.03 12.89L72.03 12.89L72.03 12.89Q71.29 13.82 70.82 15.29L70.82 15.29L70.82 15.29Q70.35 16.76 70.35 18.27L70.35 18.27L70.35 18.27Q70.35 18.70 70.49 18.86L70.49 18.86L70.49 18.86Q70.17 19.18 69.78 19.18L69.78 19.18ZM83.02 11.30L83.02 11.30Q83.02 11.63 82.94 12.06L82.94 12.06L82.94 12.06Q82.85 12.49 82.63 13.43L82.63 13.43L82.63 13.43Q82.28 14.91 82.08 16.00L82.08 16.00L82.08 16.00Q81.89 17.09 81.89 18.27L81.89 18.27L81.89 18.27Q81.89 18.66 82.08 18.86L82.08 18.86L82.08 18.86Q81.76 19.18 81.37 19.18L81.37 19.18L81.37 19.18Q80.96 19.18 80.74 18.91L80.74 18.91L80.74 18.91Q80.51 18.65 80.51 18.13L80.51 18.13L80.51 18.13Q80.51 17.77 80.63 17.21L80.63 17.21L80.49 17.14L80.49 17.14Q79.97 18.12 79.19 18.65L79.19 18.65L79.19 18.65Q78.41 19.18 77.53 19.18L77.53 19.18L77.53 19.18Q76.78 19.18 76.20 18.77L76.20 18.77L76.20 18.77Q75.63 18.37 75.31 17.62L75.31 17.62L75.31 17.62Q75.00 16.87 75.00 15.89L75.00 15.89L75.00 15.89Q75.00 14.39 75.71 13.14L75.71 13.14L75.71 13.14Q76.43 11.89 77.65 11.16L77.65 11.16L77.65 11.16Q78.88 10.43 80.32 10.43L80.32 10.43L80.32 10.43Q80.98 10.43 81.69 10.54L81.69 10.54L81.69 10.54Q81.83 10.77 81.84 10.93L81.84 10.93L81.84 10.93Q82.08 10.78 82.33 10.78L82.33 10.78L82.33 10.78Q82.66 10.78 82.84 10.91L82.84 10.91L82.84 10.91Q83.02 11.05 83.02 11.30L83.02 11.30ZM78.06 18.13L78.06 18.13Q80.78 18.13 81.68 11.07L81.68 11.07L81.68 11.07Q80.02 11.10 78.85 11.75L78.85 11.75L78.85 11.75Q77.67 12.39 77.06 13.49L77.06 13.49L77.06 13.49Q76.45 14.59 76.45 15.97L76.45 15.97L76.45 15.97Q76.45 17.00 76.87 17.56L76.87 17.56L76.87 17.56Q77.29 18.13 78.06 18.13L78.06 18.13Z"></path></g><!----><g data-v-423bf9ae="" id="05862af8-c4a2-4fa1-a28c-ef0d793c86ae" transform="matrix(2.8125,0,0,2.8125,0,0)" stroke="none" fill="black"><path d="M16 1c8.271 0 15 6.729 15 15s-6.729 15-15 15S1 24.271 1 16 7.729 1 16 1m0-1C7.163 0 0 7.163 0 16s7.163 16 16 16 16-7.163 16-16S24.837 0 16 0z"></path><path d="M16 7.045L24.955 16 16 24.955 7.045 16 16 7.045m0-1.414L5.631 16 16 26.369 26.369 16 16 5.631z"></path></g><!----></svg>